<?xml version="1.0" standalone="no"?><!DOCTYPE svg PUBLIC "-//W3C//DTD SVG 1.1//EN" "http://www.w3.org/Graphics/SVG/1.1/DTD/svg11.dtd"><svg t="1725977337996" class="icon" viewBox="0 0 1024 1024" version="1.1" xmlns="http://www.w3.org/2000/svg" p-id="4761" xmlns:xlink="http://www.w3.org/1999/xlink" width="400" height="400"><path d="M512 512m-512 0a512 512 0 1 0 1024 0 512 512 0 1 0-1024 0Z" fill="#38C771" p-id="4762"></path><path d="M369.312 815.68a17.056 17.056 0 1 1 0-34.144h89.6v-62.56H208.256a34.144 34.144 0 0 1-34.144-34.08V245.44a34.144 34.144 0 0 1 34.144-34.144h612.256a34.144 34.144 0 0 1 34.144 34.144v439.456a34.144 34.144 0 0 1-34.144 34.08H569.92v62.56h89.6a17.056 17.056 0 1 1 0 34.144z m-161.056-130.784h612.256V245.44H208.256z m115.2-212.512a193.728 193.728 0 0 1 193.472-193.472v1.216h56.224a14.752 14.752 0 0 0 15.328-16.448 2.976 2.976 0 0 1 5.952 0 20.672 20.672 0 0 1-21.28 22.4h-56.288v5.088h86.048a2.976 2.976 0 0 1 0 5.92h-86.048v5.056H566.784c16.768 0 33.92 13.376 33.92 26.464a2.976 2.976 0 1 1-5.952 0c0-9.76-14.656-20.48-27.968-20.48H516.864v1.216a163.776 163.776 0 1 0 163.808 162.976h29.696a193.504 193.504 0 0 1-386.976 0z m135.68 70.976a57.6 57.6 0 0 1 28.8-49.696 8.224 8.224 0 0 0 4-7.168v-41.6h24.576a8.224 8.224 0 1 0 0-16.416h-24.576v-16.544h24.576a8.224 8.224 0 1 0 0-16.416h-24.576v-32.864a24.64 24.64 0 0 1 49.248 0v123.84a8.16 8.16 0 0 0 4.128 7.104 57.6 57.6 0 1 1-86.208 49.728z m77.152-4.224a24.64 24.64 0 0 1-24.64 24.64 8.224 8.224 0 1 0 0 16.416 41.088 41.088 0 0 0 41.088-41.056 8.224 8.224 0 0 0-8.192-8.192 8.224 8.224 0 0 0-8.32 8.128z" fill="#FFFFFF" p-id="4763"></path></svg>